<svg xmlns="http://www.w3.org/2000/svg" xmlns:xlink="http://www.w3.org/1999/xlink" zoomAndPan="magnify" viewBox="32 122 295 102" preserveAspectRatio="xMidYMid meet" version="1.0"><defs><g/><clipPath id="d0c3223f3d"><path d="M 34 125.324219 L 172.683594 125.324219 L 172.683594 221.324219 L 34 221.324219 Z M 34 125.324219 " clip-rule="nonzero"/></clipPath><clipPath id="c2159dbeae"><rect x="0" width="247" y="0" height="51"/></clipPath></defs><rect x="-37.5" width="450" fill="#ffffff" y="-37.499999" height="449.999989" fill-opacity="1"/><rect x="-37.5" width="450" fill="#ffffff" y="-37.499999" height="449.999989" fill-opacity="1"/><g clip-path="url(#d0c3223f3d)"><path fill="#ff9202" d="M 333.671875 215.859375 C 335.164062 215.859375 336.371094 217.070312 336.371094 218.558594 C 336.371094 220.050781 335.164062 221.261719 333.671875 221.261719 L 56.339844 221.261719 C 53.667969 221.261719 51.238281 220.167969 49.484375 218.414062 C 47.726562 216.65625 46.632812 214.226562 46.632812 211.558594 L 46.632812 177.4375 L 41.820312 177.4375 C 39.941406 177.4375 38.394531 176.945312 37.1875 176.128906 C 35.851562 175.226562 34.964844 173.945312 34.519531 172.492188 L 34.515625 172.496094 C 34.105469 171.148438 34.089844 169.660156 34.460938 168.21875 C 34.902344 166.5 35.894531 164.824219 37.402344 163.523438 L 78.75 127.878906 C 80.730469 126.175781 83.296875 125.324219 85.835938 125.324219 C 88.375 125.324219 90.941406 126.175781 92.917969 127.878906 L 120.707031 151.914062 C 121.832031 152.886719 121.953125 154.589844 120.980469 155.714844 C 120.007812 156.839844 118.308594 156.960938 117.183594 155.988281 L 89.394531 131.953125 C 88.445312 131.136719 87.152344 130.726562 85.835938 130.726562 C 84.519531 130.726562 83.222656 131.136719 82.273438 131.953125 L 40.925781 167.597656 C 40.273438 168.160156 39.851562 168.855469 39.671875 169.550781 C 39.546875 170.039062 39.542969 170.511719 39.664062 170.910156 L 39.664062 170.921875 C 39.753906 171.210938 39.933594 171.472656 40.207031 171.652344 C 40.558594 171.890625 41.089844 172.035156 41.820312 172.035156 L 49.335938 172.035156 C 50.828125 172.035156 52.035156 173.246094 52.035156 174.738281 L 52.035156 211.558594 C 52.035156 212.738281 52.523438 213.8125 53.300781 214.59375 C 54.082031 215.375 55.15625 215.859375 56.339844 215.859375 Z M 333.671875 215.859375 " fill-opacity="1" fill-rule="nonzero"/></g><g transform="matrix(1, 0, 0, 1, 78, 158)"><g clip-path="url(#c2159dbeae)"><g fill="#002f6d" fill-opacity="1"><g transform="translate(0.029245, 39.07201)"><g><path d="M 3.46875 0 L 3.46875 -26.671875 L 14.171875 -26.671875 C 16.929688 -26.671875 19.015625 -26.035156 20.421875 -24.765625 C 21.828125 -23.492188 22.53125 -21.738281 22.53125 -19.5 C 22.53125 -17.882812 22.117188 -16.554688 21.296875 -15.515625 C 20.472656 -14.484375 19.25 -13.695312 17.625 -13.15625 L 17.625 -12.765625 C 18.457031 -12.398438 19.132812 -11.859375 19.65625 -11.140625 C 20.175781 -10.421875 20.664062 -9.359375 21.125 -7.953125 L 23.78125 0 L 18.375 0 L 15.765625 -7.96875 C 15.492188 -8.769531 15.191406 -9.390625 14.859375 -9.828125 C 14.523438 -10.273438 14.097656 -10.597656 13.578125 -10.796875 C 13.066406 -11.003906 12.394531 -11.109375 11.5625 -11.109375 L 8.734375 -11.109375 L 8.734375 0 Z M 13.53125 -15.28125 C 16.082031 -15.28125 17.359375 -16.472656 17.359375 -18.859375 C 17.359375 -21.285156 16.082031 -22.5 13.53125 -22.5 L 8.734375 -22.5 L 8.734375 -15.28125 Z M 13.53125 -15.28125 "/></g></g></g><g fill="#002f6d" fill-opacity="1"><g transform="translate(23.204479, 39.07201)"><g><path d="M 19.890625 -8.921875 L 6.953125 -8.921875 C 7.097656 -7.171875 7.59375 -5.894531 8.4375 -5.09375 C 9.289062 -4.300781 10.457031 -3.90625 11.9375 -3.90625 C 13.082031 -3.90625 14.015625 -4.117188 14.734375 -4.546875 C 15.453125 -4.984375 16.03125 -5.640625 16.46875 -6.515625 L 16.859375 -6.515625 L 20.21875 -4.359375 C 19.5625 -2.953125 18.566406 -1.804688 17.234375 -0.921875 C 15.910156 -0.046875 14.144531 0.390625 11.9375 0.390625 C 9.851562 0.390625 8.050781 -0.00390625 6.53125 -0.796875 C 5.019531 -1.585938 3.851562 -2.765625 3.03125 -4.328125 C 2.21875 -5.890625 1.8125 -7.796875 1.8125 -10.046875 C 1.8125 -12.335938 2.238281 -14.265625 3.09375 -15.828125 C 3.957031 -17.398438 5.125 -18.570312 6.59375 -19.34375 C 8.070312 -20.113281 9.726562 -20.5 11.5625 -20.5 C 14.40625 -20.5 16.582031 -19.742188 18.09375 -18.234375 C 19.613281 -16.734375 20.375 -14.523438 20.375 -11.609375 C 20.375 -10.546875 20.335938 -9.722656 20.265625 -9.140625 Z M 15.546875 -12.1875 C 15.492188 -13.71875 15.132812 -14.832031 14.46875 -15.53125 C 13.8125 -16.226562 12.84375 -16.578125 11.5625 -16.578125 C 9.007812 -16.578125 7.507812 -15.113281 7.0625 -12.1875 Z M 15.546875 -12.1875 "/></g></g></g><g fill="#002f6d" fill-opacity="1"><g transform="translate(43.315783, 39.07201)"><g><path d="M 9.40625 0.390625 C 8.03125 0.390625 6.769531 0.226562 5.625 -0.09375 C 4.488281 -0.414062 3.515625 -0.859375 2.703125 -1.421875 C 1.898438 -1.992188 1.300781 -2.644531 0.90625 -3.375 L 3.71875 -6.40625 L 4.109375 -6.40625 C 4.773438 -5.5 5.5625 -4.820312 6.46875 -4.375 C 7.382812 -3.925781 8.378906 -3.703125 9.453125 -3.703125 C 10.429688 -3.703125 11.171875 -3.878906 11.671875 -4.234375 C 12.171875 -4.585938 12.421875 -5.09375 12.421875 -5.75 C 12.421875 -6.257812 12.238281 -6.6875 11.875 -7.03125 C 11.519531 -7.375 10.941406 -7.644531 10.140625 -7.84375 L 7.484375 -8.484375 C 5.484375 -8.953125 4.023438 -9.675781 3.109375 -10.65625 C 2.191406 -11.632812 1.734375 -12.878906 1.734375 -14.390625 C 1.734375 -15.640625 2.050781 -16.726562 2.6875 -17.65625 C 3.320312 -18.582031 4.21875 -19.285156 5.375 -19.765625 C 6.539062 -20.253906 7.898438 -20.5 9.453125 -20.5 C 11.265625 -20.5 12.765625 -20.238281 13.953125 -19.71875 C 15.148438 -19.195312 16.082031 -18.5 16.75 -17.625 L 14.046875 -14.703125 L 13.6875 -14.703125 C 13.125 -15.335938 12.492188 -15.800781 11.796875 -16.09375 C 11.097656 -16.382812 10.316406 -16.53125 9.453125 -16.53125 C 7.453125 -16.53125 6.453125 -15.910156 6.453125 -14.671875 C 6.453125 -14.140625 6.640625 -13.707031 7.015625 -13.375 C 7.390625 -13.050781 8.039062 -12.789062 8.96875 -12.59375 L 11.453125 -12.046875 C 13.492188 -11.609375 14.984375 -10.90625 15.921875 -9.9375 C 16.867188 -8.96875 17.34375 -7.664062 17.34375 -6.03125 C 17.34375 -4.757812 17.023438 -3.632812 16.390625 -2.65625 C 15.765625 -1.6875 14.851562 -0.9375 13.65625 -0.40625 C 12.46875 0.125 11.050781 0.390625 9.40625 0.390625 Z M 9.40625 0.390625 "/></g></g></g><g fill="#002f6d" fill-opacity="1"><g transform="translate(60.107828, 39.07201)"><g><path d="M 19.890625 -8.921875 L 6.953125 -8.921875 C 7.097656 -7.171875 7.59375 -5.894531 8.4375 -5.09375 C 9.289062 -4.300781 10.457031 -3.90625 11.9375 -3.90625 C 13.082031 -3.90625 14.015625 -4.117188 14.734375 -4.546875 C 15.453125 -4.984375 16.03125 -5.640625 16.46875 -6.515625 L 16.859375 -6.515625 L 20.21875 -4.359375 C 19.5625 -2.953125 18.566406 -1.804688 17.234375 -0.921875 C 15.910156 -0.046875 14.144531 0.390625 11.9375 0.390625 C 9.851562 0.390625 8.050781 -0.00390625 6.53125 -0.796875 C 5.019531 -1.585938 3.851562 -2.765625 3.03125 -4.328125 C 2.21875 -5.890625 1.8125 -7.796875 1.8125 -10.046875 C 1.8125 -12.335938 2.238281 -14.265625 3.09375 -15.828125 C 3.957031 -17.398438 5.125 -18.570312 6.59375 -19.34375 C 8.070312 -20.113281 9.726562 -20.5 11.5625 -20.5 C 14.40625 -20.5 16.582031 -19.742188 18.09375 -18.234375 C 19.613281 -16.734375 20.375 -14.523438 20.375 -11.609375 C 20.375 -10.546875 20.335938 -9.722656 20.265625 -9.140625 Z M 15.546875 -12.1875 C 15.492188 -13.71875 15.132812 -14.832031 14.46875 -15.53125 C 13.8125 -16.226562 12.84375 -16.578125 11.5625 -16.578125 C 9.007812 -16.578125 7.507812 -15.113281 7.0625 -12.1875 Z M 15.546875 -12.1875 "/></g></g></g><g fill="#002f6d" fill-opacity="1"><g transform="translate(80.219132, 39.07201)"><g><path d="M 2.90625 0 L 2.90625 -20.125 L 7.8125 -20.125 L 7.8125 -17.125 L 8.1875 -17.0625 C 8.675781 -18.175781 9.316406 -18.992188 10.109375 -19.515625 C 10.898438 -20.035156 11.859375 -20.296875 12.984375 -20.296875 C 14.128906 -20.296875 15 -20.101562 15.59375 -19.71875 L 14.734375 -15.359375 L 14.359375 -15.28125 C 14.023438 -15.414062 13.707031 -15.515625 13.40625 -15.578125 C 13.101562 -15.640625 12.734375 -15.671875 12.296875 -15.671875 C 10.878906 -15.671875 9.800781 -15.175781 9.0625 -14.1875 C 8.320312 -13.195312 7.953125 -11.601562 7.953125 -9.40625 L 7.953125 0 Z M 2.90625 0 "/></g></g></g><g fill="#002f6d" fill-opacity="1"><g transform="translate(94.239049, 39.07201)"><g><path d="M 13.84375 0 L 7.828125 0 L 0.390625 -20.125 L 5.671875 -20.125 L 10.671875 -5.78125 L 11.09375 -5.78125 L 16.109375 -20.125 L 21.265625 -20.125 Z M 13.84375 0 "/></g></g></g><g fill="#002f6d" fill-opacity="1"><g transform="translate(114.113257, 39.07201)"><g><path d="M 7.84375 0.390625 C 6.550781 0.390625 5.429688 0.148438 4.484375 -0.328125 C 3.535156 -0.804688 2.804688 -1.503906 2.296875 -2.421875 C 1.785156 -3.335938 1.53125 -4.441406 1.53125 -5.734375 C 1.53125 -6.921875 1.785156 -7.914062 2.296875 -8.71875 C 2.804688 -9.53125 3.597656 -10.195312 4.671875 -10.71875 C 5.742188 -11.238281 7.140625 -11.632812 8.859375 -11.90625 C 10.066406 -12.101562 10.984375 -12.316406 11.609375 -12.546875 C 12.234375 -12.773438 12.65625 -13.035156 12.875 -13.328125 C 13.09375 -13.617188 13.203125 -13.992188 13.203125 -14.453125 C 13.203125 -15.097656 12.976562 -15.585938 12.53125 -15.921875 C 12.082031 -16.265625 11.332031 -16.4375 10.28125 -16.4375 C 9.164062 -16.4375 8.101562 -16.1875 7.09375 -15.6875 C 6.082031 -15.1875 5.207031 -14.53125 4.46875 -13.71875 L 4.109375 -13.71875 L 1.984375 -16.90625 C 3.003906 -18.039062 4.25 -18.921875 5.71875 -19.546875 C 7.195312 -20.179688 8.804688 -20.5 10.546875 -20.5 C 13.203125 -20.5 15.125 -19.929688 16.3125 -18.796875 C 17.507812 -17.671875 18.109375 -16.066406 18.109375 -13.984375 L 18.109375 -5.25 C 18.109375 -4.351562 18.503906 -3.90625 19.296875 -3.90625 C 19.597656 -3.90625 19.894531 -3.957031 20.1875 -4.0625 L 20.453125 -4 L 20.8125 -0.46875 C 20.53125 -0.289062 20.140625 -0.144531 19.640625 -0.03125 C 19.148438 0.0820312 18.601562 0.140625 18 0.140625 C 16.800781 0.140625 15.863281 -0.0859375 15.1875 -0.546875 C 14.507812 -1.003906 14.023438 -1.726562 13.734375 -2.71875 L 13.359375 -2.75 C 12.367188 -0.65625 10.53125 0.390625 7.84375 0.390625 Z M 9.453125 -3.390625 C 10.617188 -3.390625 11.550781 -3.78125 12.25 -4.5625 C 12.945312 -5.351562 13.296875 -6.445312 13.296875 -7.84375 L 13.296875 -9.890625 L 12.953125 -9.953125 C 12.648438 -9.710938 12.25 -9.507812 11.75 -9.34375 C 11.257812 -9.1875 10.550781 -9.023438 9.625 -8.859375 C 8.53125 -8.679688 7.742188 -8.367188 7.265625 -7.921875 C 6.785156 -7.484375 6.546875 -6.851562 6.546875 -6.03125 C 6.546875 -5.175781 6.800781 -4.519531 7.3125 -4.0625 C 7.820312 -3.613281 8.535156 -3.390625 9.453125 -3.390625 Z M 9.453125 -3.390625 "/></g></g></g><g fill="#002f6d" fill-opacity="1"><g transform="translate(133.568004, 39.07201)"><g/></g></g><g fill="#002f6d" fill-opacity="1"><g transform="translate(140.621127, 39.07201)"><g><path d="M 13.0625 -26.671875 C 17.394531 -26.671875 20.695312 -25.550781 22.96875 -23.3125 C 25.25 -21.070312 26.390625 -17.742188 26.390625 -13.328125 C 26.390625 -8.929688 25.25 -5.609375 22.96875 -3.359375 C 20.695312 -1.117188 17.394531 0 13.0625 0 L 3.46875 0 L 3.46875 -26.671875 Z M 12.75 -4.4375 C 15.5 -4.4375 17.550781 -5.132812 18.90625 -6.53125 C 20.269531 -7.9375 20.953125 -10.203125 20.953125 -13.328125 C 20.953125 -16.453125 20.269531 -18.71875 18.90625 -20.125 C 17.550781 -21.53125 15.5 -22.234375 12.75 -22.234375 L 8.734375 -22.234375 L 8.734375 -4.4375 Z M 12.75 -4.4375 "/></g></g></g><g fill="#002f6d" fill-opacity="1"><g transform="translate(167.370947, 39.07201)"><g><path d="M 5.421875 -22.53125 C 4.503906 -22.53125 3.757812 -22.804688 3.1875 -23.359375 C 2.613281 -23.910156 2.328125 -24.625 2.328125 -25.5 C 2.328125 -26.363281 2.613281 -27.070312 3.1875 -27.625 C 3.757812 -28.175781 4.503906 -28.453125 5.421875 -28.453125 C 6.023438 -28.453125 6.5625 -28.320312 7.03125 -28.0625 C 7.507812 -27.8125 7.878906 -27.460938 8.140625 -27.015625 C 8.398438 -26.578125 8.53125 -26.070312 8.53125 -25.5 C 8.53125 -24.925781 8.398438 -24.414062 8.140625 -23.96875 C 7.878906 -23.519531 7.507812 -23.164062 7.03125 -22.90625 C 6.5625 -22.65625 6.023438 -22.53125 5.421875 -22.53125 Z M 2.90625 0 L 2.90625 -20.125 L 7.953125 -20.125 L 7.953125 0 Z M 2.90625 0 "/></g></g></g><g fill="#002f6d" fill-opacity="1"><g transform="translate(176.448447, 39.07201)"><g><path d="M 2.90625 0 L 2.90625 -20.125 L 7.8125 -20.125 L 7.8125 -17.125 L 8.1875 -17.0625 C 8.675781 -18.175781 9.316406 -18.992188 10.109375 -19.515625 C 10.898438 -20.035156 11.859375 -20.296875 12.984375 -20.296875 C 14.128906 -20.296875 15 -20.101562 15.59375 -19.71875 L 14.734375 -15.359375 L 14.359375 -15.28125 C 14.023438 -15.414062 13.707031 -15.515625 13.40625 -15.578125 C 13.101562 -15.640625 12.734375 -15.671875 12.296875 -15.671875 C 10.878906 -15.671875 9.800781 -15.175781 9.0625 -14.1875 C 8.320312 -13.195312 7.953125 -11.601562 7.953125 -9.40625 L 7.953125 0 Z M 2.90625 0 "/></g></g></g><g fill="#002f6d" fill-opacity="1"><g transform="translate(190.468364, 39.07201)"><g><path d="M 19.890625 -8.921875 L 6.953125 -8.921875 C 7.097656 -7.171875 7.59375 -5.894531 8.4375 -5.09375 C 9.289062 -4.300781 10.457031 -3.90625 11.9375 -3.90625 C 13.082031 -3.90625 14.015625 -4.117188 14.734375 -4.546875 C 15.453125 -4.984375 16.03125 -5.640625 16.46875 -6.515625 L 16.859375 -6.515625 L 20.21875 -4.359375 C 19.5625 -2.953125 18.566406 -1.804688 17.234375 -0.921875 C 15.910156 -0.046875 14.144531 0.390625 11.9375 0.390625 C 9.851562 0.390625 8.050781 -0.00390625 6.53125 -0.796875 C 5.019531 -1.585938 3.851562 -2.765625 3.03125 -4.328125 C 2.21875 -5.890625 1.8125 -7.796875 1.8125 -10.046875 C 1.8125 -12.335938 2.238281 -14.265625 3.09375 -15.828125 C 3.957031 -17.398438 5.125 -18.570312 6.59375 -19.34375 C 8.070312 -20.113281 9.726562 -20.5 11.5625 -20.5 C 14.40625 -20.5 16.582031 -19.742188 18.09375 -18.234375 C 19.613281 -16.734375 20.375 -14.523438 20.375 -11.609375 C 20.375 -10.546875 20.335938 -9.722656 20.265625 -9.140625 Z M 15.546875 -12.1875 C 15.492188 -13.71875 15.132812 -14.832031 14.46875 -15.53125 C 13.8125 -16.226562 12.84375 -16.578125 11.5625 -16.578125 C 9.007812 -16.578125 7.507812 -15.113281 7.0625 -12.1875 Z M 15.546875 -12.1875 "/></g></g></g><g fill="#002f6d" fill-opacity="1"><g transform="translate(210.579668, 39.07201)"><g><path d="M 13.875 -4.796875 L 15.203125 -1.0625 C 14.648438 -0.613281 13.957031 -0.257812 13.125 0 C 12.300781 0.257812 11.367188 0.390625 10.328125 0.390625 C 8.148438 0.390625 6.492188 -0.203125 5.359375 -1.390625 C 4.234375 -2.578125 3.671875 -4.300781 3.671875 -6.5625 L 3.671875 -16.125 L 0.609375 -16.125 L 0.609375 -20.140625 L 3.671875 -20.140625 L 3.671875 -24.0625 L 8.71875 -24.875 L 8.71875 -20.140625 L 14.421875 -20.140625 L 14.421875 -16.125 L 8.71875 -16.125 L 8.71875 -6.9375 C 8.71875 -5.9375 8.921875 -5.207031 9.328125 -4.75 C 9.742188 -4.289062 10.347656 -4.0625 11.140625 -4.0625 C 12.046875 -4.0625 12.832031 -4.304688 13.5 -4.796875 Z M 13.875 -4.796875 "/></g></g></g><g fill="#002f6d" fill-opacity="1"><g transform="translate(224.453696, 39.07201)"><g><path d="M 7.84375 0.390625 C 6.550781 0.390625 5.429688 0.148438 4.484375 -0.328125 C 3.535156 -0.804688 2.804688 -1.503906 2.296875 -2.421875 C 1.785156 -3.335938 1.53125 -4.441406 1.53125 -5.734375 C 1.53125 -6.921875 1.785156 -7.914062 2.296875 -8.71875 C 2.804688 -9.53125 3.597656 -10.195312 4.671875 -10.71875 C 5.742188 -11.238281 7.140625 -11.632812 8.859375 -11.90625 C 10.066406 -12.101562 10.984375 -12.316406 11.609375 -12.546875 C 12.234375 -12.773438 12.65625 -13.035156 12.875 -13.328125 C 13.09375 -13.617188 13.203125 -13.992188 13.203125 -14.453125 C 13.203125 -15.097656 12.976562 -15.585938 12.53125 -15.921875 C 12.082031 -16.265625 11.332031 -16.4375 10.28125 -16.4375 C 9.164062 -16.4375 8.101562 -16.1875 7.09375 -15.6875 C 6.082031 -15.1875 5.207031 -14.53125 4.46875 -13.71875 L 4.109375 -13.71875 L 1.984375 -16.90625 C 3.003906 -18.039062 4.25 -18.921875 5.71875 -19.546875 C 7.195312 -20.179688 8.804688 -20.5 10.546875 -20.5 C 13.203125 -20.5 15.125 -19.929688 16.3125 -18.796875 C 17.507812 -17.671875 18.109375 -16.066406 18.109375 -13.984375 L 18.109375 -5.25 C 18.109375 -4.351562 18.503906 -3.90625 19.296875 -3.90625 C 19.597656 -3.90625 19.894531 -3.957031 20.1875 -4.0625 L 20.453125 -4 L 20.8125 -0.46875 C 20.53125 -0.289062 20.140625 -0.144531 19.640625 -0.03125 C 19.148438 0.0820312 18.601562 0.140625 18 0.140625 C 16.800781 0.140625 15.863281 -0.0859375 15.1875 -0.546875 C 14.507812 -1.003906 14.023438 -1.726562 13.734375 -2.71875 L 13.359375 -2.75 C 12.367188 -0.65625 10.53125 0.390625 7.84375 0.390625 Z M 9.453125 -3.390625 C 10.617188 -3.390625 11.550781 -3.78125 12.25 -4.5625 C 12.945312 -5.351562 13.296875 -6.445312 13.296875 -7.84375 L 13.296875 -9.890625 L 12.953125 -9.953125 C 12.648438 -9.710938 12.25 -9.507812 11.75 -9.34375 C 11.257812 -9.1875 10.550781 -9.023438 9.625 -8.859375 C 8.53125 -8.679688 7.742188 -8.367188 7.265625 -7.921875 C 6.785156 -7.484375 6.546875 -6.851562 6.546875 -6.03125 C 6.546875 -5.175781 6.800781 -4.519531 7.3125 -4.0625 C 7.820312 -3.613281 8.535156 -3.390625 9.453125 -3.390625 Z M 9.453125 -3.390625 "/></g></g></g></g></g></svg>