<?xml version="1.0" encoding="UTF-8"?>
<svg id="Layer_1" data-name="Layer 1" xmlns="http://www.w3.org/2000/svg" viewBox="0 0 40 40">
  <defs>
    <style>
      .cls-1 {
        fill: none;
      }

      .cls-2 {
        fill: #ff9202;
      }
    </style>
  </defs>
  <rect class="cls-1" x="3.56" y="2.62" width="45.34" height="45.34"/>
  <path class="cls-2" d="M9.89,36.71h28.91v2.12H9.89c-1.05,0-2-.43-2.68-1.12-.69-.69-1.12-1.65-1.12-2.69v-13.39h-1.89c-.74,0-1.35-.19-1.82-.52-.52-.35-.87-.86-1.05-1.42-.08-.27-.12-.57-.12-.86,0-.27.03-.54.1-.81.17-.67.57-1.33,1.16-1.84L18.69,2.18c.77-.66,1.78-1.01,2.78-1.01s2,.34,2.78,1.01l10.9,9.43c.44.38.49,1.05.11,1.5-.38.44-1.05.48-1.5.1L22.86,3.77c-.37-.32-.88-.47-1.4-.47s-1.02.16-1.4.47L3.84,17.77c-.25.22-.42.49-.49.76-.05.19-.05.37,0,.53h0c.03.12.11.22.22.29.13.09.34.15.63.15h2.95c.58,0,1.06.47,1.06,1.06v14.44c0,.47.19.89.5,1.2.31.31.72.5,1.19.5Z"/>
</svg>